<?xml version="1.0" encoding="utf-8"?>
<!-- Generator: Adobe Illustrator 17.1.0, SVG Export Plug-In . SVG Version: 6.00 Build 0)  -->
<!DOCTYPE svg PUBLIC "-//W3C//DTD SVG 1.1//EN" "http://www.w3.org/Graphics/SVG/1.1/DTD/svg11.dtd">
<svg version="1.1" id="Layer_1" xmlns="http://www.w3.org/2000/svg" xmlns:xlink="http://www.w3.org/1999/xlink" x="0px" y="0px"
	 viewBox="0 0 640 640" enable-background="new 0 0 640 640" xml:space="preserve">
<path fill="#ED1F24" d="M53.3,135.4h533.3c29.5,0,53.3-23.8,53.3-53.3s-23.8-53.3-53.3-53.3H53.3C23.8,28.7,0,52.5,0,82.1
	S23.8,135.4,53.3,135.4z M586.7,266.7H53.3C23.8,266.7,0,290.5,0,320s23.8,53.3,53.3,53.3h533.3c29.5,0,53.3-23.8,53.3-53.3
	S616.2,266.7,586.7,266.7z M586.7,504.6H53.3C23.8,504.6,0,528.4,0,557.9s23.8,53.3,53.3,53.3h533.3c29.5,0,53.3-23.8,53.3-53.3
	S616.2,504.6,586.7,504.6z"/>
</svg>
