<?xml version="1.0" encoding="utf-8"?>
<!-- Generator: Adobe Illustrator 17.1.0, SVG Export Plug-In . SVG Version: 6.00 Build 0)  -->
<!DOCTYPE svg PUBLIC "-//W3C//DTD SVG 1.1//EN" "http://www.w3.org/Graphics/SVG/1.1/DTD/svg11.dtd">
<svg version="1.1" id="Forma_1_1_" xmlns="http://www.w3.org/2000/svg" xmlns:xlink="http://www.w3.org/1999/xlink" x="0px" y="0px"
	 viewBox="0 0 640 640" enable-background="new 0 0 640 640" xml:space="preserve">
<path d="M200.9,156.4C204.4,156.4,204.4,156.4,200.9,156.4c-3.6-56.9,0-74.7,3.6-81.8c17.8-49.8,71.1-71.1,71.1-71.1
	c3.6,0,10.7-3.6,17.8-3.6c3.6,3.6,7.1,0,7.1,0h3.6c0,0,17.8,3.6,46.2,10.7l17.8,7.1c35.6,10.7,49.8,28.4,53.3,32
	c28.4,32,21.3,81.8,14.2,106.7l0,0c7.1,10.7,3.6,28.4,0,39.1c0,10.7-7.1,17.8-10.7,21.3c-7.1,56.9-53.3,117.3-106.7,117.3
	c-46.2,0-96-56.9-106.7-117.3c-3.6-3.6-7.1-10.7-10.7-17.8C200.9,184.9,193.8,167.1,200.9,156.4z M524.4,376.9
	c0,0-10.7-14.2-35.6-24.9c0,0-3.6,0-7.1,0c-21.3-10.7-46.2-17.8-46.2-17.8c-3.6,0-7.1-3.6-14.2-3.6c-10.7-10.7-24.9-17.8-28.4-24.9
	l10.7,92.4l-85.3,216.9l-81.8-213.3v-99.6c0,24.9-88.9,49.8-88.9,49.8c-24.9,10.7-35.6,24.9-35.6,24.9
	c-39.1,56.9-42.7,181.3-42.7,181.3c0,28.4,14.2,32,14.2,32c85.3,42.7,224,49.8,224,49.8c7.1,0,14.2,0,21.3,0l0,0
	c0,0,138.7-7.1,227.6-46.2c0,0,14.2-3.6,14.2-32C567.1,561.8,563.6,433.8,524.4,376.9z M392.9,309.3l3.6-3.6l0,0
	C392.9,305.8,392.9,305.8,392.9,309.3z M243.6,302.2L243.6,302.2L243.6,302.2L243.6,302.2L243.6,302.2z M282.7,344.9l39.1,56.9
	l39.1-56.9C318.2,362.7,282.7,344.9,282.7,344.9z M321.8,593.8l28.4-174.2l-28.4-17.8l-28.4,17.8L321.8,593.8z"/>
</svg>
