<?xml version="1.0" encoding="utf-8"?>
<!-- Generator: Adobe Illustrator 17.1.0, SVG Export Plug-In . SVG Version: 6.00 Build 0)  -->
<!DOCTYPE svg PUBLIC "-//W3C//DTD SVG 1.1//EN" "http://www.w3.org/Graphics/SVG/1.1/DTD/svg11.dtd">
<svg version="1.1" id="Layer_1" xmlns="http://www.w3.org/2000/svg" xmlns:xlink="http://www.w3.org/1999/xlink" x="0px" y="0px"
	 viewBox="0 0 612 792" enable-background="new 0 0 612 792" xml:space="preserve">
<path fill="#ED1F24" d="M51,106.3h510c28.2,0,51-22.8,51-51s-22.8-51-51-51H51C22.8,4.2,0,27,0,55.3S22.8,106.3,51,106.3z
	 M561,231.8H51c-28.2,0-51,22.8-51,51s22.8,51,51,51h510c28.2,0,51-22.8,51-51S589.2,231.8,561,231.8z M561.1,459.3H51
	c-28.2,0-51,22.8-51,51s22.8,51,51,51h510c28.2,0,51-22.8,51-51S589.3,459.3,561.1,459.3z M114.3,746.4c0.9,1.9,1.7,3.9,2.5,5.9
	c0.8-2.1,1.6-4.1,2.5-6.1c0.9-2,1.8-3.9,2.8-5.7l26.4-52.1c0.5-0.9,1-1.6,1.4-2.1c0.5-0.5,1-0.9,1.7-1.1c0.6-0.2,1.3-0.4,2.1-0.4
	c0.8,0,1.7,0,2.7,0h18.2v102.9h-21.1v-59.2c0-2.9,0.1-6,0.4-9.3l-27.3,53c-0.8,1.7-2,2.9-3.4,3.7c-1.4,0.8-3.1,1.3-4.9,1.3h-3.3
	c-1.8,0-3.5-0.4-4.9-1.3c-1.4-0.8-2.6-2.1-3.4-3.7l-27.4-53c0.2,1.7,0.3,3.3,0.4,4.9c0.1,1.6,0.1,3.1,0.1,4.5v59.2H58.9V684.9h18.2
	c1,0,1.9,0,2.7,0c0.8,0,1.5,0.1,2.1,0.4c0.6,0.2,1.2,0.6,1.7,1.1c0.5,0.5,1,1.2,1.4,2.1l26.5,52.3
	C112.5,742.6,113.4,744.4,114.3,746.4z M291.9,684.9v18.4h-42.3v24H282V745h-32.4v24.5h42.3v18.4h-66.3v-103H291.9z M349.8,685
	c0.7,0.1,1.3,0.3,1.9,0.5c0.6,0.3,1.1,0.6,1.6,1.1c0.5,0.5,1.1,1.1,1.8,1.9l48.9,61.9c-0.2-2-0.3-3.9-0.4-5.8
	c-0.1-1.9-0.1-3.6-0.1-5.3v-54.5h21.1v103h-12.4c-1.8,0-3.4-0.3-4.7-0.8c-1.3-0.6-2.5-1.6-3.7-3.1l-48.6-61.4
	c0.1,1.8,0.3,3.5,0.4,5.3c0.1,1.7,0.1,3.3,0.1,4.8v55.2h-21.1v-103h12.6C348.3,684.9,349.1,684.9,349.8,685z M508.8,769
	c3.2,0,6.1-0.5,8.6-1.6c2.5-1.1,4.7-2.6,6.4-4.6c1.7-2,3.1-4.4,4-7.2c0.9-2.9,1.4-6.1,1.4-9.7v-61h23.9v61c0,6.3-1,12.1-3.1,17.4
	c-2.1,5.3-5,9.8-8.8,13.6s-8.5,6.8-13.9,8.9c-5.5,2.1-11.6,3.2-18.5,3.2c-6.9,0-13.1-1.1-18.5-3.2c-5.5-2.1-10.1-5.1-13.9-8.9
	c-3.8-3.8-6.7-8.4-8.8-13.6c-2-5.3-3-11.1-3-17.4v-61h23.9v60.9c0,3.6,0.5,6.9,1.4,9.7c0.9,2.9,2.2,5.3,4,7.3c1.7,2,3.9,3.5,6.4,4.6
	C502.8,768.5,505.6,769,508.8,769z"/>
</svg>
