<?xml version="1.0" encoding="utf-8"?>
<!-- Generator: Adobe Illustrator 17.1.0, SVG Export Plug-In . SVG Version: 6.00 Build 0)  -->
<!DOCTYPE svg PUBLIC "-//W3C//DTD SVG 1.1//EN" "http://www.w3.org/Graphics/SVG/1.1/DTD/svg11.dtd">
<svg version="1.1" id="Forma_1_1_" xmlns="http://www.w3.org/2000/svg" xmlns:xlink="http://www.w3.org/1999/xlink" x="0px" y="0px"
	 viewBox="0 0 640 640" enable-background="new 0 0 640 640" xml:space="preserve">
<path d="M508.1,533.9c14.5,13.4,13.4,36.9-1.1,51.3L488.1,603l-4.5,3.3c-10,7.8-20,13.4-32.4,17.8c-11.1,4.5-21.2,6.7-32.4,7.8
	c-1.1,0-4.5,0-8.9,0c-30.2,0-138.4-10-268.9-138.4C31.6,386.6-8.5,307.2,1.5,221.4c1.1-10,3.3-21.2,7.8-32.4s11.1-22.3,17.8-31.3
	l2.2-3.3l20-20c6.7-6.7,16.7-11.1,26.8-11.1s18.9,3.3,24.5,10l81.5,80.4c14.5,13.4,13.4,36.9-1.1,51.3l-44.7,43.5l6.7,11.1
	c14.5,25.6,34.6,61.4,72.5,99.3c38,38,73.6,56.9,100.4,71.4l12.3,6.7l44.7-43.5c6.7-6.7,16.7-11.1,26.8-11.1c10,0,18.9,3.3,24.5,10
	L508.1,533.9z M339.6,303.9c-17.8-17.8-40.2-30.2-64.7-36.9l-11.1-3.3l-3.3,11.1c-1.1,4.5-2.2,7.8-4.5,11.1l-5.6,12.3l13.4,3.3
	c18.9,4.5,35.7,14.5,49.1,26.8c12.3,12.3,22.3,27.9,26.8,45.8l2.2,7.8l17.8,1.1c2.2,0,3.3,0,5.6,0l16.7,4.5l-3.3-15.6
	C372,345.3,358.7,321.8,339.6,303.9z M397.6,247c-33.5-32.4-74.7-53.6-121.6-61.4l-16.7-2.2l2.2,15.6c1.1,4.5,1.1,10,2.2,14.5
	l1.1,8.9l8.9,2.2c36.9,6.7,71.4,24.5,97.1,50.2c30.2,30.2,49.1,68,53.6,110.5l1.1,8.9l13.4,2.2c2.2,0,4.5,0,7.8,0l16.7,1.1
	l-1.1-13.4C456.9,330.8,434.5,283.9,397.6,247z M459.1,185.6C404.4,132,332.9,100.8,256,96.3l-14.5-1.1l2.2,14.5
	c1.1,4.5,2.2,10,2.2,14.5l2.2,8.9h8.9c65.8,4.5,128.3,32.4,175.2,78.1c45.8,45.8,73.6,106,79.3,170.7l1.1,11.1l11.2-1.1
	c2.2,0,5.6,0,8.9-1.1l16.7-1.1l-1.1-11.1C543.8,306.1,511.5,237,459.1,185.6z M637.6,372c-7.8-93.8-49.1-181.8-116-247.8
	C450.2,53.9,354.2,12.6,253.8,8.1h-11.1l-1.2,11.2c0,3.3,0,6.7,0,10L240.4,46h12.3c91.5,3.3,178.5,40.2,243.3,104.9
	c60.2,60.2,98.2,139.5,104.9,224.3l1.1,12.3l12.3-1.1c4.5,0,7.8-1.1,12.3-1.1l13.4-1.1L637.6,372z"/>
</svg>
